<svg width="180" height="37" viewBox="0 0 180 37" fill="none" xmlns="http://www.w3.org/2000/svg">
<path d="M60.7152 33.0676C60.7026 32.8767 60.6512 32.6904 60.5643 32.52C60.4774 32.3495 60.3567 32.1985 60.2097 32.0762C59.822 31.7898 59.3443 31.6523 58.8637 31.6888C58.6922 31.6888 58.521 31.702 58.3515 31.7282C58.1879 31.7497 58.0271 31.7893 57.8722 31.8464C57.7317 31.8961 57.6007 31.9693 57.4848 32.063C57.3781 32.1424 57.2979 32.2523 57.255 32.3782H55.6267C55.7101 32.0757 55.863 31.797 56.0732 31.564C56.2855 31.3338 56.5366 31.1426 56.8151 30.9993C57.1186 30.8492 57.4411 30.741 57.7737 30.6776C58.1333 30.6114 58.4981 30.5784 58.8637 30.5791C59.3717 30.5683 59.8779 30.6438 60.3607 30.8024C60.7481 30.9327 61.1038 31.1429 61.4047 31.4196C61.6927 31.678 61.9173 31.9993 62.0612 32.3585C62.2073 32.7465 62.2786 33.1586 62.2714 33.5732C62.277 33.9849 62.2081 34.3942 62.0678 34.7813C61.9346 35.136 61.7211 35.4552 61.444 35.7137C61.1442 35.9921 60.785 36.1986 60.3935 36.3177C59.8941 36.472 59.3732 36.5452 58.8506 36.5344C58.5075 36.5321 58.165 36.5035 57.8262 36.449C57.4898 36.3943 57.1627 36.2926 56.8545 36.147C56.5672 36.0163 56.305 35.8363 56.0797 35.6152C55.8559 35.3902 55.6971 35.1089 55.6201 34.801H57.2353C57.2984 34.9149 57.3859 35.0136 57.4914 35.0899C57.6124 35.1778 57.7449 35.2485 57.8854 35.3C58.0409 35.3547 58.2014 35.3943 58.3646 35.4182C58.5341 35.4444 58.7053 35.4575 58.8768 35.4576C59.3627 35.4955 59.8464 35.3607 60.2425 35.0768C60.3906 34.9567 60.5108 34.8058 60.5947 34.6346C60.6786 34.4634 60.7242 34.2759 60.7284 34.0853H57.7868V33.0676H60.7152Z" fill="white"/>
<path d="M63.8517 36.4429V30.6649H65.4078V33.0221H66.524L68.3887 30.6649H70.1812L67.8766 33.416L70.365 36.4429H68.5397L66.6225 34.1054H65.4078V36.4429H63.8517Z" fill="white"/>
<path d="M74.6036 30.5788C75.1218 30.57 75.6381 30.6431 76.1334 30.7955C76.5416 30.9292 76.9221 31.1361 77.2562 31.4061C77.5607 31.6597 77.8014 31.9813 77.9587 32.3451C78.2607 33.129 78.2607 33.9971 77.9587 34.781C77.8116 35.1385 77.5874 35.4591 77.3022 35.7199C76.971 35.9964 76.5866 36.202 76.1728 36.324C75.6697 36.4709 75.1474 36.5418 74.6233 36.5341C74.1029 36.543 73.5845 36.4698 73.0869 36.3174C72.679 36.1954 72.3011 35.9897 71.9772 35.7134C71.6897 35.4571 71.465 35.1381 71.3206 34.781C71.1668 34.3925 71.091 33.9775 71.0974 33.5597C71.091 33.1441 71.1669 32.7313 71.3206 32.3451C71.4631 31.985 71.688 31.6634 71.9772 31.4061C72.3104 31.1348 72.6911 30.9277 73.1 30.7955C73.5909 30.6435 74.1028 30.5704 74.6167 30.5788M74.6167 35.4442C74.9293 35.4523 75.2408 35.4033 75.5359 35.2997C75.7692 35.2144 75.9802 35.0775 76.1531 34.8992C76.3148 34.7306 76.438 34.529 76.5142 34.3083C76.5943 34.0714 76.6342 33.8229 76.6324 33.5729C76.6342 33.3207 76.5943 33.07 76.5142 32.8309C76.4396 32.6075 76.3163 32.4034 76.1531 32.2334C75.978 32.0593 75.7675 31.925 75.5359 31.8395C75.24 31.7391 74.9291 31.6902 74.6167 31.695C74.3085 31.6896 74.0018 31.7385 73.7106 31.8395C73.4771 31.9251 73.2645 32.0594 73.0869 32.2334C72.9279 32.4054 72.807 32.609 72.7323 32.8309C72.6522 33.07 72.6123 33.3207 72.6141 33.5729C72.6123 33.8229 72.6522 34.0714 72.7323 34.3083C72.808 34.5377 72.9357 34.7465 73.1054 34.9185C73.2751 35.0904 73.4822 35.2209 73.7106 35.2997C74.0011 35.4033 74.3083 35.4523 74.6167 35.4442Z" fill="white"/>
<path d="M83.0443 36.5358C82.5283 36.5452 82.014 36.472 81.5211 36.3191C81.119 36.1974 80.7475 35.9915 80.4311 35.7151C80.1418 35.4605 79.9168 35.141 79.7746 34.7827C79.6267 34.4019 79.5531 33.9962 79.5579 33.5877C79.5542 33.1738 79.6323 32.7633 79.7877 32.3796C79.93 32.0177 80.1549 31.694 80.4442 31.4341C80.7687 31.1576 81.1431 30.9459 81.5473 30.8104C82.0323 30.6508 82.5404 30.5731 83.0509 30.5806C83.43 30.5769 83.8084 30.6121 84.1802 30.6856C84.5038 30.7463 84.8147 30.8618 85.0995 31.027C85.361 31.1837 85.5941 31.3835 85.7889 31.618C85.9854 31.8709 86.1223 32.1649 86.1894 32.4781H84.6005C84.5548 32.3512 84.4842 32.2347 84.3929 32.1355C84.3016 32.0362 84.1913 31.9563 84.0686 31.9003C83.7534 31.7577 83.4099 31.6881 83.064 31.6968C82.7588 31.6886 82.4551 31.7422 82.1711 31.8543C81.9377 31.942 81.7284 32.0838 81.5605 32.268C81.4039 32.4435 81.2894 32.6523 81.2256 32.8786C81.1541 33.1104 81.1186 33.3518 81.1205 33.5943C81.1165 33.8396 81.1542 34.0839 81.2322 34.3166C81.3004 34.538 81.4196 34.7404 81.5802 34.9075C81.7564 35.0802 81.9665 35.2143 82.1974 35.3014C82.4833 35.4052 82.7862 35.4542 83.0903 35.4459C83.4465 35.4598 83.8007 35.3854 84.1212 35.2292C84.2416 35.1721 84.3495 35.0916 84.4386 34.9924C84.5276 34.8932 84.596 34.7773 84.6398 34.6514H86.2551C86.1887 34.9641 86.0492 35.2566 85.848 35.505C85.6484 35.7501 85.4002 35.9513 85.1191 36.0959C84.8198 36.2534 84.4991 36.3662 84.1671 36.4308C83.7991 36.5004 83.4254 36.5356 83.0509 36.5358" fill="white"/>
<path d="M89.2847 36.4332H87.8205V30.6553H89.3963V34.5948L93.0929 30.6553H94.5177V36.4332H92.9419V32.5397C92.9419 32.5397 91.7141 33.8528 89.2847 36.4332Z" fill="white"/>
<path d="M99.6495 36.534C99.1334 36.5439 98.6191 36.4707 98.1262 36.3173C97.7228 36.1942 97.3494 35.9885 97.0297 35.7132C96.7379 35.4609 96.5124 35.1407 96.3732 34.7809C96.2253 34.4001 96.1517 33.9944 96.1565 33.5859C96.1528 33.172 96.2309 32.7614 96.3863 32.3778C96.5287 32.0159 96.7535 31.6921 97.0429 31.4323C97.3673 31.1558 97.7418 30.9441 98.1459 30.8085C98.6307 30.6481 99.139 30.5704 99.6495 30.5787C100.026 30.5747 100.403 30.6099 100.772 30.6838C101.096 30.7435 101.407 30.859 101.692 31.0252C101.944 31.1816 102.166 31.3817 102.348 31.6161C102.55 31.8659 102.687 32.1612 102.749 32.4763H101.12C101.077 32.3482 101.007 32.2307 100.915 32.1312C100.824 32.0318 100.712 31.9525 100.588 31.8985C100.275 31.7559 99.9342 31.6863 99.5904 31.6949C99.2831 31.6873 98.9774 31.7408 98.6909 31.8525C98.4594 31.9402 98.2523 32.082 98.0868 32.2662C97.9306 32.4429 97.8142 32.6512 97.7454 32.8768C97.6771 33.1092 97.6417 33.3502 97.6404 33.5925C97.6396 33.8376 97.6773 34.0813 97.752 34.3147C97.8201 34.5377 97.9418 34.7406 98.1066 34.9056C98.2803 35.0782 98.4884 35.2124 98.7172 35.2996C99.0054 35.4033 99.3105 35.4523 99.6167 35.444C99.9728 35.4564 100.327 35.382 100.648 35.2274C100.89 35.1103 101.076 34.9028 101.166 34.6496H102.775C102.711 34.9629 102.571 35.2559 102.368 35.5031C102.169 35.7465 101.923 35.9475 101.646 36.0941C101.346 36.2505 101.025 36.3633 100.694 36.4289C100.326 36.4986 99.9518 36.5338 99.5773 36.534" fill="white"/>
<path d="M110.096 30.6649V31.7483H107.641V36.4429H106.085V31.7483H103.622V30.6649H110.096Z" fill="white"/>
<path d="M112.528 33.9879C112.543 34.1937 112.599 34.3945 112.692 34.5788C112.782 34.7627 112.91 34.9259 113.066 35.0581C113.237 35.2036 113.436 35.313 113.651 35.3798C113.915 35.4683 114.193 35.5105 114.471 35.5046C114.784 35.5088 115.095 35.46 115.391 35.3601C115.653 35.2831 115.874 35.1063 116.008 34.8677H117.623C117.537 35.1529 117.381 35.4123 117.17 35.6228C116.959 35.839 116.713 36.0168 116.441 36.148C116.146 36.2835 115.835 36.3828 115.515 36.4435C115.162 36.5054 114.804 36.5362 114.445 36.5354C113.93 36.5435 113.416 36.4726 112.922 36.3253C112.517 36.2048 112.143 35.9988 111.825 35.7212C111.536 35.4643 111.311 35.1426 111.169 34.7823C111.02 34.3927 110.946 33.9782 110.952 33.5611C110.947 33.1485 111.027 32.7393 111.188 32.3595C111.335 32.0037 111.559 31.6851 111.845 31.4272C112.164 31.1536 112.532 30.9421 112.928 30.8034C113.882 30.5056 114.903 30.5056 115.857 30.8034C116.24 30.9356 116.593 31.1432 116.894 31.414C117.18 31.6592 117.404 31.967 117.551 32.3136C117.692 32.6686 117.764 33.0476 117.761 33.4298C117.759 33.6167 117.744 33.8032 117.715 33.9879H112.528ZM116.224 33.0489C116.221 32.8479 116.171 32.6503 116.079 32.4716C115.986 32.2929 115.854 32.1377 115.693 32.0181C115.317 31.7663 114.87 31.642 114.419 31.6635C114.156 31.6599 113.895 31.6975 113.644 31.7752C113.442 31.8387 113.252 31.9388 113.086 32.0706C112.936 32.1918 112.811 32.3413 112.718 32.5105C112.627 32.6778 112.567 32.8602 112.541 33.0489H116.224Z" fill="white"/>
<path d="M119.4 30.6649H121.291L123.484 33.416L125.664 30.6649H127.515V36.4429H125.966V32.2998L123.661 35.1494H123.293L120.943 32.2998V36.4429H119.4V30.6649Z" fill="white"/>
<path d="M134.156 35.7476C133.896 36.0269 133.568 36.2329 133.204 36.3451C132.778 36.4742 132.335 36.5383 131.891 36.5356C131.535 36.538 131.18 36.5006 130.833 36.4239C130.538 36.361 130.256 36.2478 130 36.0891C129.77 35.9502 129.576 35.7589 129.435 35.531C129.294 35.302 129.222 35.038 129.225 34.7693C129.217 34.482 129.299 34.1993 129.461 33.9617C129.631 33.7292 129.857 33.5439 130.118 33.4233C130.42 33.2715 130.743 33.1654 131.076 33.1082C131.457 33.0359 131.844 33.0007 132.232 33.0031H134.097C134.107 32.823 134.081 32.6425 134.019 32.473C133.957 32.3036 133.86 32.1488 133.736 32.0182C133.378 31.744 132.93 31.615 132.481 31.6571C132.174 31.6508 131.867 31.6975 131.575 31.795C131.463 31.8326 131.36 31.8945 131.274 31.9761C131.187 32.0578 131.12 32.1573 131.076 32.2677H129.461C129.505 31.9762 129.638 31.7054 129.842 31.493C130.045 31.2735 130.288 31.0952 130.558 30.9677C130.853 30.8194 131.17 30.7175 131.497 30.6657C131.842 30.6106 132.191 30.5821 132.541 30.5803C132.963 30.5763 133.384 30.6248 133.795 30.7248C134.161 30.8087 134.504 30.9724 134.799 31.2041C135.109 31.4451 135.338 31.7749 135.456 32.1495C135.569 32.5375 135.625 32.9403 135.62 33.3445V36.4436H134.254L134.156 35.7476ZM134.07 33.8895H132.534C132.266 33.8906 131.999 33.9082 131.733 33.942C131.5 33.971 131.276 34.0494 131.076 34.1718C130.987 34.2249 130.914 34.3011 130.864 34.3924C130.814 34.4837 130.79 34.5867 130.794 34.6905C130.782 34.8259 130.812 34.9618 130.88 35.0794C130.948 35.197 131.051 35.2906 131.175 35.3471C131.459 35.4999 131.778 35.5746 132.101 35.5638C132.368 35.5651 132.635 35.5342 132.895 35.4719C133.134 35.4285 133.359 35.3295 133.552 35.183C133.727 35.048 133.867 34.8721 133.959 34.6708C134.062 34.4329 134.111 34.175 134.103 33.9158" fill="white"/>
<path d="M66.7004 22.422H72.5655L63.2635 15.3454L63.3031 15.3157L72.2737 8.6792H66.557L59.2628 13.8321V8.6792H55V22.422H59.2628V16.8883L59.3172 16.9279L66.7004 22.422Z" fill="white"/>
<path d="M137.978 22.422V8.6792H132.321L126.773 16.9724H126.258L126.248 16.9575L120.715 8.6792H115.057V22.422H119.201V13.4662H119.404L119.414 13.486L124.478 20.6269H128.563L133.632 13.4662H133.834V22.422H137.978Z" fill="white"/>
<path d="M180 17.1757H175.643C174.847 18.6593 173.052 19.6088 171.069 19.6088C168.319 19.6088 166.079 17.7939 166.079 15.5586C166.079 13.3234 168.319 11.5085 171.069 11.5085C171.938 11.4768 172.802 11.6645 173.579 12.0542C174.357 12.444 175.024 13.0233 175.519 13.7388H179.94C178.917 10.4353 175.267 8.13086 171.064 8.13086C166.02 8.13086 161.91 11.464 161.91 15.5487C161.91 19.6335 166.02 22.9666 171.064 22.9666C173.108 22.9825 175.112 22.4053 176.835 21.305C178.355 20.3513 179.477 18.879 179.995 17.1609" fill="white"/>
<path d="M150.376 8.13086C145.332 8.13086 141.223 11.464 141.223 15.5487C141.223 19.6335 145.332 22.9666 150.376 22.9666C155.42 22.9666 159.53 19.6384 159.53 15.5487C159.53 11.459 155.425 8.13086 150.376 8.13086ZM150.376 19.6088C147.627 19.6088 145.386 17.7939 145.386 15.5586C145.386 13.3234 147.627 11.5085 150.376 11.5085C153.126 11.5085 155.371 13.3234 155.371 15.5586C155.371 17.7939 153.131 19.6088 150.376 19.6088Z" fill="white"/>
<path d="M111.715 17.1757H107.353C106.562 18.6593 104.767 19.6088 102.784 19.6088C100.029 19.6088 97.789 17.7939 97.789 15.5586C97.789 13.3234 100.029 11.5085 102.784 11.5085C103.653 11.4754 104.517 11.6625 105.295 12.0524C106.073 12.4422 106.74 13.0223 107.234 13.7388H111.655C110.632 10.4353 106.982 8.13086 102.784 8.13086C97.7345 8.13086 93.63 11.464 93.63 15.5487C93.63 19.6335 97.7345 22.9666 102.784 22.9666C104.826 22.9832 106.829 22.4059 108.55 21.305C110.072 20.3522 111.196 18.8797 111.715 17.1609" fill="white"/>
<path d="M82.0845 8.13086C77.0354 8.13086 72.9308 11.464 72.9308 15.5487C72.9308 19.6335 77.0354 22.9666 82.0845 22.9666C87.1336 22.9666 91.2381 19.6384 91.2381 15.5487C91.2381 11.459 87.1336 8.13086 82.0845 8.13086ZM82.0845 19.6088C79.33 19.6088 77.0947 17.7939 77.0947 15.5586C77.0947 13.3234 79.33 11.5085 82.0845 11.5085C84.839 11.5085 87.0742 13.3234 87.0742 15.5586C87.0742 17.7939 84.834 19.6088 82.0845 19.6088Z" fill="white"/>
<path d="M12.3336 18.498H6.16766V24.6639H12.3336V18.498Z" fill="white"/>
<path d="M12.3318 0H0V12.3318H6.1659L12.3318 18.5027V12.3318H18.5027L12.3318 6.1659V0Z" fill="white"/>
<path d="M30.8342 24.6699L24.6683 18.504V24.6699V37.0017H37.0001V24.6699H30.8342Z" fill="white"/>
<path d="M18.4973 24.6768H12.3314V30.8427H18.4973V24.6768Z" fill="white"/>
<path d="M30.8342 12.3234H24.6683V18.4893H30.8342V12.3234Z" fill="white"/>
<path d="M24.663 6.17676H18.4971V12.3427H24.663V6.17676Z" fill="white"/>
<path d="M36.9948 0H30.8289L36.9948 6.1659V0Z" fill="white"/>
<path d="M0 24.6768V37.0086H12.3318L0 24.6768Z" fill="white"/>
</svg>
