<svg width="274" height="54" viewBox="0 0 274 54" fill="none" xmlns="http://www.w3.org/2000/svg">
<path d="M81.1047 38.556C81.0895 38.3273 81.028 38.104 80.9238 37.8998C80.8197 37.6956 80.6751 37.5147 80.4989 37.3681C80.0345 37.025 79.4621 36.8602 78.8862 36.904C78.6808 36.904 78.4757 36.9198 78.2727 36.9512C78.0766 36.9769 77.8839 37.0244 77.6983 37.0928C77.53 37.1523 77.3731 37.2401 77.2342 37.3524C77.1063 37.4474 77.0103 37.5791 76.9588 37.73H75.0079C75.1078 37.3676 75.291 37.0336 75.5428 36.7545C75.7972 36.4786 76.0981 36.2496 76.4318 36.0779C76.7954 35.8981 77.1818 35.7684 77.5804 35.6925C78.0111 35.6131 78.4482 35.5736 78.8862 35.5745C79.495 35.5615 80.1015 35.6519 80.6799 35.8419C81.1441 35.998 81.5702 36.25 81.9307 36.5814C82.2758 36.8911 82.545 37.276 82.7174 37.7064C82.8925 38.1713 82.9779 38.6651 82.9692 39.1618C82.976 39.655 82.8934 40.1455 82.7253 40.6093C82.5657 41.0343 82.3099 41.4167 81.9779 41.7264C81.6186 42.0599 81.1883 42.3074 80.7192 42.4501C80.1209 42.635 79.4967 42.7227 78.8705 42.7097C78.4595 42.7069 78.0491 42.6728 77.6433 42.6075C77.2401 42.5419 76.8482 42.4201 76.479 42.2456C76.1347 42.0889 75.8206 41.8733 75.5507 41.6083C75.2825 41.3388 75.0922 41.0017 75 40.6329H76.9353C77.0109 40.7694 77.1156 40.8876 77.2421 40.979C77.387 41.0844 77.5459 41.1691 77.7141 41.2308C77.9005 41.2963 78.0928 41.3438 78.2884 41.3724C78.4914 41.4037 78.6965 41.4195 78.902 41.4196C79.4842 41.465 80.0637 41.3034 80.5383 40.9633C80.7158 40.8194 80.8597 40.6386 80.9603 40.4335C81.0608 40.2283 81.1155 40.0038 81.1205 39.7754H77.5961V38.556H81.1047Z" fill="#1D1E1C"/>
<path d="M84.865 42.6161V35.6932H86.7295V38.5174H88.0668L90.301 35.6932H92.4487L89.6874 38.9895L92.669 42.6161H90.482L88.1848 39.8155H86.7295V42.6161H84.865Z" fill="#1D1E1C"/>
<path d="M97.743 35.5742C98.3639 35.5636 98.9825 35.6512 99.576 35.8338C100.065 35.994 100.521 36.2419 100.921 36.5654C101.286 36.8693 101.574 37.2546 101.763 37.6904C102.125 38.6296 102.125 39.6698 101.763 40.609C101.587 41.0373 101.318 41.4215 100.976 41.734C100.58 42.0653 100.119 42.3116 99.6232 42.4577C99.0203 42.6338 98.3945 42.7187 97.7666 42.7095C97.1432 42.7201 96.522 42.6325 95.9258 42.4499C95.4371 42.3037 94.9843 42.0572 94.5963 41.7261C94.2517 41.4191 93.9826 41.0369 93.8096 40.609C93.6253 40.1435 93.5344 39.6463 93.5421 39.1458C93.5344 38.6478 93.6253 38.1532 93.8096 37.6904C93.9802 37.2591 94.2497 36.8737 94.5963 36.5654C94.9955 36.2403 95.4516 35.9922 95.9415 35.8338C96.5297 35.6517 97.143 35.5641 97.7587 35.5742M97.7587 41.4036C98.1333 41.4133 98.5065 41.3546 98.8601 41.2305C99.1396 41.1283 99.3924 40.9643 99.5996 40.7506C99.7933 40.5487 99.9409 40.3071 100.032 40.0426C100.128 39.7588 100.176 39.4611 100.174 39.1615C100.176 38.8594 100.128 38.559 100.032 38.2726C99.9429 38.0048 99.7951 37.7603 99.5996 37.5567C99.3898 37.3481 99.1376 37.1871 98.8601 37.0846C98.5056 36.9644 98.133 36.9058 97.7587 36.9116C97.3895 36.9051 97.022 36.9637 96.6731 37.0846C96.3933 37.1872 96.1386 37.3481 95.9258 37.5567C95.7353 37.7627 95.5905 38.0067 95.5009 38.2726C95.405 38.559 95.3572 38.8594 95.3593 39.1615C95.3572 39.4611 95.405 39.7588 95.5009 40.0426C95.5917 40.3175 95.7447 40.5677 95.948 40.7737C96.1513 40.9798 96.3994 41.1361 96.6731 41.2305C97.0212 41.3546 97.3893 41.4133 97.7587 41.4036Z" fill="#1D1E1C"/>
<path d="M107.86 42.7108C107.241 42.722 106.625 42.6344 106.035 42.4512C105.553 42.3053 105.108 42.0586 104.729 41.7274C104.382 41.4224 104.112 41.0396 103.942 40.6103C103.765 40.154 103.677 39.668 103.682 39.1786C103.678 38.6826 103.772 38.1907 103.958 37.7311C104.128 37.2974 104.398 36.9095 104.744 36.5982C105.133 36.2669 105.582 36.0133 106.066 35.8509C106.647 35.6597 107.256 35.5666 107.868 35.5755C108.322 35.5712 108.775 35.6133 109.221 35.7014C109.608 35.7742 109.981 35.9125 110.322 36.1105C110.635 36.2981 110.915 36.5375 111.148 36.8185C111.384 37.1215 111.548 37.4738 111.628 37.8491H109.724C109.67 37.697 109.585 37.5574 109.476 37.4385C109.366 37.3196 109.234 37.2238 109.087 37.1568C108.709 36.9859 108.298 36.9025 107.883 36.9129C107.518 36.9031 107.154 36.9673 106.813 37.1017C106.534 37.2067 106.283 37.3766 106.082 37.5973C105.894 37.8076 105.757 38.0578 105.681 38.3289C105.595 38.6066 105.552 38.8958 105.555 39.1864C105.55 39.4804 105.595 39.773 105.688 40.0518C105.77 40.3171 105.913 40.5596 106.105 40.7598C106.317 40.9667 106.568 41.1275 106.845 41.2318C107.188 41.3562 107.55 41.4149 107.915 41.4049C108.342 41.4216 108.766 41.3324 109.15 41.1453C109.294 41.0769 109.424 40.9805 109.53 40.8616C109.637 40.7427 109.719 40.6038 109.771 40.453H111.707C111.627 40.8276 111.46 41.1781 111.219 41.4757C110.98 41.7694 110.682 42.0105 110.346 42.1837C109.987 42.3724 109.603 42.5076 109.205 42.5849C108.764 42.6684 108.316 42.7105 107.868 42.7108" fill="#1D1E1C"/>
<path d="M115.333 42.6007H113.579V35.6779H115.467V40.398L119.896 35.6779H121.603V42.6007H119.715V37.9356C119.715 37.9356 118.244 39.509 115.333 42.6007Z" fill="#1D1E1C"/>
<path d="M127.755 42.7094C127.137 42.7213 126.521 42.6336 125.93 42.4497C125.447 42.3022 124.999 42.0558 124.616 41.726C124.267 41.4236 123.997 41.04 123.83 40.6089C123.653 40.1526 123.564 39.6666 123.57 39.1771C123.566 38.6812 123.659 38.1893 123.845 37.7296C124.016 37.296 124.285 36.9081 124.632 36.5968C125.021 36.2655 125.47 36.0118 125.954 35.8494C126.535 35.6572 127.144 35.5641 127.755 35.5741C128.207 35.5693 128.658 35.6115 129.101 35.7C129.489 35.7715 129.861 35.9099 130.202 36.109C130.504 36.2964 130.771 36.5361 130.989 36.817C131.23 37.1163 131.395 37.4701 131.468 37.8476H129.517C129.465 37.6942 129.382 37.5534 129.272 37.4342C129.162 37.315 129.029 37.22 128.88 37.1553C128.505 36.9846 128.096 36.9012 127.685 36.9114C127.316 36.9023 126.95 36.9665 126.607 37.1003C126.329 37.2053 126.081 37.3752 125.883 37.5959C125.696 37.8077 125.556 38.0572 125.474 38.3275C125.392 38.606 125.35 38.8947 125.348 39.185C125.347 39.4787 125.392 39.7707 125.482 40.0503C125.563 40.3176 125.709 40.5607 125.907 40.7584C126.115 40.9651 126.364 41.1259 126.638 41.2304C126.984 41.3546 127.349 41.4133 127.716 41.4034C128.143 41.4182 128.566 41.3291 128.951 41.1438C129.241 41.0036 129.464 40.7549 129.573 40.4515H131.5C131.423 40.827 131.255 41.178 131.012 41.4742C130.774 41.7659 130.48 42.0066 130.147 42.1823C129.788 42.3697 129.404 42.5048 129.006 42.5835C128.565 42.6669 128.118 42.7091 127.669 42.7094" fill="#1D1E1C"/>
<path d="M140.271 35.6932V36.9913H137.329V42.6161H135.465V36.9913H132.515V35.6932H140.271Z" fill="#1D1E1C"/>
<path d="M143.182 39.658C143.201 39.9046 143.268 40.1452 143.379 40.366C143.487 40.5863 143.64 40.7819 143.827 40.9403C144.032 41.1146 144.27 41.2457 144.527 41.3258C144.844 41.4318 145.177 41.4824 145.511 41.4752C145.885 41.4803 146.258 41.4218 146.612 41.3022C146.926 41.2099 147.192 40.998 147.352 40.7121H149.287C149.183 41.0539 148.997 41.3647 148.744 41.6168C148.492 41.8759 148.196 42.0889 147.871 42.2462C147.517 42.4085 147.144 42.5274 146.762 42.6002C146.338 42.6743 145.909 42.7112 145.479 42.7103C144.862 42.72 144.246 42.6351 143.654 42.4586C143.17 42.3142 142.722 42.0674 142.34 41.7348C141.993 41.4269 141.724 41.0415 141.554 40.6099C141.375 40.1431 141.287 39.6464 141.294 39.1466C141.288 38.6523 141.384 38.162 141.577 37.707C141.753 37.2806 142.022 36.8989 142.364 36.5899C142.746 36.2621 143.187 36.0087 143.662 35.8425C144.804 35.4858 146.028 35.4858 147.171 35.8425C147.63 36.0009 148.052 36.2497 148.414 36.5742C148.756 36.8678 149.025 37.2367 149.2 37.6519C149.37 38.0773 149.455 38.5314 149.452 38.9893C149.45 39.2132 149.432 39.4367 149.397 39.658H143.182ZM147.611 38.533C147.607 38.2921 147.547 38.0554 147.436 37.8413C147.326 37.6271 147.168 37.4412 146.974 37.2979C146.524 36.9963 145.989 36.8473 145.448 36.8731C145.133 36.8687 144.82 36.9138 144.52 37.0068C144.277 37.0829 144.05 37.2029 143.851 37.3608C143.671 37.5061 143.521 37.6852 143.41 37.8879C143.301 38.0884 143.229 38.3069 143.198 38.533H147.611Z" fill="#1D1E1C"/>
<path d="M151.419 35.6932H153.684L156.312 38.9895L158.924 35.6932H161.142V42.6161H159.285V37.6521L156.524 41.0663H156.084L153.267 37.6521V42.6161H151.419V35.6932Z" fill="#1D1E1C"/>
<path d="M169.096 41.7665C168.785 42.101 168.391 42.3479 167.955 42.4824C167.445 42.6369 166.915 42.7138 166.382 42.7105C165.956 42.7135 165.531 42.6686 165.115 42.5768C164.761 42.5014 164.423 42.3657 164.116 42.1755C163.841 42.0091 163.609 41.78 163.439 41.5068C163.271 41.2325 163.184 40.9161 163.188 40.5943C163.178 40.25 163.277 39.9114 163.471 39.6267C163.674 39.3481 163.945 39.126 164.258 38.9816C164.62 38.7997 165.007 38.6725 165.406 38.604C165.863 38.5174 166.326 38.4752 166.791 38.4781H169.025C169.038 38.2622 169.006 38.046 168.931 37.843C168.857 37.64 168.742 37.4545 168.592 37.2981C168.164 36.9695 167.627 36.8149 167.09 36.8654C166.721 36.8578 166.354 36.9137 166.004 37.0306C165.869 37.0757 165.746 37.1498 165.642 37.2476C165.539 37.3455 165.458 37.4647 165.406 37.597H163.471C163.523 37.2477 163.682 36.9232 163.927 36.6687C164.17 36.4058 164.461 36.1921 164.785 36.0394C165.139 35.8616 165.518 35.7396 165.91 35.6775C166.323 35.6116 166.741 35.5774 167.16 35.5752C167.667 35.5704 168.171 35.6285 168.663 35.7483C169.102 35.8489 169.513 36.045 169.867 36.3226C170.238 36.6114 170.512 37.0066 170.653 37.4554C170.79 37.9203 170.856 38.4028 170.85 38.8872V42.6003H169.214L169.096 41.7665ZM168.993 39.5401H167.153C166.832 39.5415 166.511 39.5625 166.193 39.6031C165.914 39.6378 165.646 39.7317 165.406 39.8784C165.299 39.942 165.211 40.0333 165.152 40.1427C165.092 40.252 165.063 40.3754 165.068 40.4999C165.053 40.6621 165.089 40.8249 165.171 40.9658C165.252 41.1068 165.376 41.2188 165.524 41.2866C165.864 41.4696 166.247 41.5592 166.633 41.5462C166.954 41.5477 167.273 41.5107 167.585 41.436C167.871 41.3841 168.141 41.2655 168.372 41.0899C168.582 40.9281 168.749 40.7175 168.86 40.4763C168.983 40.1912 169.042 39.8822 169.033 39.5716" fill="#1D1E1C"/>
<path d="M93.6131 22.7578H102.943L88.1456 11.5003L88.2086 11.4531L102.479 0.895752H93.385L81.7813 9.09304V0.895752H75.0001V22.7578H81.7813V13.9548L81.8679 14.0177L93.6131 22.7578Z" fill="#1D1E1C"/>
<path d="M206.998 22.7578V0.895752H197.999L189.172 14.0885H188.354L188.338 14.0649L179.535 0.895752H170.535V22.7578H177.128V8.5109H177.45L177.466 8.54236L185.522 19.9021H192.02L200.083 8.5109H200.406V22.7578H206.998Z" fill="#1D1E1C"/>
<path d="M273.844 14.3885H266.913C265.646 16.7486 262.791 18.259 259.636 18.259C255.262 18.259 251.698 15.3719 251.698 11.8161C251.698 8.26024 255.262 5.3731 259.636 5.3731C261.019 5.32267 262.393 5.62124 263.63 6.24129C264.867 6.86134 265.929 7.7829 266.716 8.92104H273.749C272.121 3.66597 266.315 0 259.628 0C251.604 0 245.067 5.30228 245.067 11.8003C245.067 18.2984 251.604 23.6007 259.628 23.6007C262.88 23.6259 266.069 22.7078 268.809 20.9574C271.227 19.4402 273.013 17.0981 273.836 14.3649" fill="#1D1E1C"/>
<path d="M226.721 0C218.697 0 212.159 5.30228 212.159 11.8003C212.159 18.2984 218.697 23.6007 226.721 23.6007C234.745 23.6007 241.282 18.3062 241.282 11.8003C241.282 5.29441 234.753 0 226.721 0ZM226.721 18.259C222.347 18.259 218.783 15.3719 218.783 11.8161C218.783 8.26024 222.347 5.3731 226.721 5.3731C231.095 5.3731 234.666 8.26024 234.666 11.8161C234.666 15.3719 231.103 18.259 226.721 18.259Z" fill="#1D1E1C"/>
<path d="M165.217 14.3885H158.279C157.02 16.7486 154.164 18.259 151.01 18.259C146.628 18.259 143.064 15.3719 143.064 11.8161C143.064 8.26024 146.628 5.3731 151.01 5.3731C152.393 5.32048 153.768 5.61807 155.005 6.23831C156.243 6.85855 157.304 7.78133 158.09 8.92104H165.123C163.495 3.66597 157.689 0 151.01 0C142.978 0 136.448 5.30228 136.448 11.8003C136.448 18.2984 142.978 23.6007 151.01 23.6007C154.259 23.6271 157.446 22.7088 160.183 20.9574C162.603 19.4416 164.392 17.0993 165.217 14.3649" fill="#1D1E1C"/>
<path d="M118.079 0C110.047 0 103.518 5.30228 103.518 11.8003C103.518 18.2984 110.047 23.6007 118.079 23.6007C126.111 23.6007 132.641 18.3062 132.641 11.8003C132.641 5.29441 126.111 0 118.079 0ZM118.079 18.259C113.697 18.259 110.141 15.3719 110.141 11.8161C110.141 8.26024 113.697 5.3731 118.079 5.3731C122.461 5.3731 126.017 8.26024 126.017 11.8161C126.017 15.3719 122.453 18.259 118.079 18.259Z" fill="#1D1E1C"/>
<path d="M16.6655 28.1443H8.33337V36.4764H16.6655V28.1443Z" fill="#1D1E1C"/>
<path d="M16.6643 3.14746H0V19.8117H8.33213L16.6643 28.1506V19.8117H25.0031L16.6643 11.4796V3.14746Z" fill="#1D1E1C"/>
<path d="M41.6682 36.4833L33.3361 28.1511V36.4833V53.1475H50.0003V36.4833H41.6682Z" fill="#1D1E1C"/>
<path d="M24.9946 36.4811H16.6625V44.8132H24.9946V36.4811Z" fill="#1D1E1C"/>
<path d="M41.6682 19.8142H33.3361V28.1463H41.6682V19.8142Z" fill="#1D1E1C"/>
<path d="M33.3285 11.4774H24.9963V19.8095H33.3285V11.4774Z" fill="#1D1E1C"/>
<path d="M49.9933 3.14746H41.6612L49.9933 11.4796V3.14746Z" fill="#1D1E1C"/>
<path d="M0 36.4811V53.1453H16.6643L0 36.4811Z" fill="#1D1E1C"/>
</svg>
